<mxfile host="app.diagrams.net" modified="2023-07-09T07:44:16.648Z" agent="Mozilla/5.0 (Windows NT 10.0; Win64; x64) AppleWebKit/537.36 (KHTML, like Gecko) Chrome/114.0.0.0 Safari/537.36" etag="oEVuvUiemUvAJGAcSXPJ" version="21.6.1" type="github">
  <diagram name="Page-1" id="aCIIjIZGG-FkMO4_wgO0">
    <mxGraphModel dx="724" dy="401" grid="0" gridSize="10" guides="1" tooltips="1" connect="1" arrows="1" fold="1" page="1" pageScale="1" pageWidth="850" pageHeight="1100" math="0" shadow="0">
      <root>
        <mxCell id="0" />
        <mxCell id="1" parent="0" />
        <mxCell id="lvymU1fU42kwSS9ivMkf-23" style="edgeStyle=orthogonalEdgeStyle;rounded=0;orthogonalLoop=1;jettySize=auto;html=1;exitX=0;exitY=0;exitDx=0;exitDy=0;entryX=1;entryY=0.5;entryDx=0;entryDy=0;curved=1;" edge="1" parent="1" source="lvymU1fU42kwSS9ivMkf-1" target="lvymU1fU42kwSS9ivMkf-9">
          <mxGeometry relative="1" as="geometry" />
        </mxCell>
        <mxCell id="lvymU1fU42kwSS9ivMkf-28" value="&lt;b&gt;GPIO&lt;/b&gt;" style="edgeLabel;html=1;align=center;verticalAlign=middle;resizable=0;points=[];" vertex="1" connectable="0" parent="lvymU1fU42kwSS9ivMkf-23">
          <mxGeometry x="0.1217" y="3" relative="1" as="geometry">
            <mxPoint as="offset" />
          </mxGeometry>
        </mxCell>
        <mxCell id="lvymU1fU42kwSS9ivMkf-24" style="edgeStyle=orthogonalEdgeStyle;rounded=0;orthogonalLoop=1;jettySize=auto;html=1;exitX=0;exitY=1;exitDx=0;exitDy=0;entryX=1;entryY=0.5;entryDx=0;entryDy=0;curved=1;" edge="1" parent="1" source="lvymU1fU42kwSS9ivMkf-1" target="lvymU1fU42kwSS9ivMkf-16">
          <mxGeometry relative="1" as="geometry" />
        </mxCell>
        <mxCell id="lvymU1fU42kwSS9ivMkf-29" value="&lt;b&gt;GPIO&lt;/b&gt;" style="edgeLabel;html=1;align=center;verticalAlign=middle;resizable=0;points=[];" vertex="1" connectable="0" parent="lvymU1fU42kwSS9ivMkf-24">
          <mxGeometry x="0.2495" y="-7" relative="1" as="geometry">
            <mxPoint as="offset" />
          </mxGeometry>
        </mxCell>
        <mxCell id="lvymU1fU42kwSS9ivMkf-1" value="MCU" style="html=1;overflow=block;blockSpacing=1;whiteSpace=wrap;fontSize=16.7;fontColor=#3a414a;spacing=9;strokeColor=#3a414a;strokeOpacity=100;rounded=1;absoluteArcSize=1;arcSize=9;strokeWidth=0.8;lucidId=D1HV6pplp9Vh;" vertex="1" parent="1">
          <mxGeometry x="498" y="228" width="101" height="60" as="geometry" />
        </mxCell>
        <mxCell id="lvymU1fU42kwSS9ivMkf-2" value="LCD" style="html=1;overflow=block;blockSpacing=1;whiteSpace=wrap;fontSize=16.7;fontColor=#3a414a;spacing=9;strokeColor=#3a414a;strokeOpacity=100;rounded=1;absoluteArcSize=1;arcSize=9;strokeWidth=0.8;lucidId=.1HVtGBK24nO;" vertex="1" parent="1">
          <mxGeometry x="680" y="175" width="90" height="45" as="geometry" />
        </mxCell>
        <mxCell id="lvymU1fU42kwSS9ivMkf-3" value="Buttons" style="html=1;overflow=block;blockSpacing=1;whiteSpace=wrap;fontSize=16.7;fontColor=#3a414a;spacing=9;strokeColor=#3a414a;strokeOpacity=100;rounded=1;absoluteArcSize=1;arcSize=9;strokeWidth=0.8;lucidId=v2HVlrVIUBT3;" vertex="1" parent="1">
          <mxGeometry x="680" y="315" width="90" height="45" as="geometry" />
        </mxCell>
        <mxCell id="lvymU1fU42kwSS9ivMkf-4" value="" style="html=1;jettySize=18;whiteSpace=wrap;fontSize=13;strokeColor=#3a414a;strokeOpacity=100;strokeWidth=0.8;rounded=1;arcSize=12;startArrow=none;endArrow=block;endFill=1;exitX=-0.004;exitY=0.5;exitPerimeter=0;entryX=1;entryY=1;lucidId=X2HVbrMtYWLz;edgeStyle=orthogonalEdgeStyle;entryDx=0;entryDy=0;curved=1;" edge="1" parent="1" source="lvymU1fU42kwSS9ivMkf-3" target="lvymU1fU42kwSS9ivMkf-1">
          <mxGeometry width="100" height="100" relative="1" as="geometry" />
        </mxCell>
        <mxCell id="lvymU1fU42kwSS9ivMkf-5" value="&lt;font style=&quot;font-size: 11px;&quot;&gt;GPIO&lt;/font&gt;" style="text;html=1;resizable=0;labelBackgroundColor=default;align=center;verticalAlign=middle;fontStyle=1;fontColor=#333333;fontSize=13.3;" vertex="1" parent="lvymU1fU42kwSS9ivMkf-4">
          <mxGeometry relative="1" as="geometry">
            <mxPoint x="13" y="-8" as="offset" />
          </mxGeometry>
        </mxCell>
        <mxCell id="lvymU1fU42kwSS9ivMkf-6" value="" style="html=1;jettySize=18;whiteSpace=wrap;fontSize=13;strokeColor=#3a414a;strokeOpacity=100;strokeWidth=0.8;rounded=1;arcSize=12;curved=1;startArrow=none;endArrow=block;endFill=1;exitX=1;exitY=0;entryX=-0.004;entryY=0.5;entryPerimeter=0;lucidId=V3HVBkSjDA~W;edgeStyle=orthogonalEdgeStyle;exitDx=0;exitDy=0;" edge="1" parent="1" source="lvymU1fU42kwSS9ivMkf-1" target="lvymU1fU42kwSS9ivMkf-2">
          <mxGeometry width="100" height="100" relative="1" as="geometry" />
        </mxCell>
        <mxCell id="lvymU1fU42kwSS9ivMkf-7" value="&lt;font style=&quot;font-size: 11px;&quot;&gt;GPIO&lt;/font&gt;" style="text;html=1;resizable=0;labelBackgroundColor=default;align=center;verticalAlign=middle;fontStyle=1;fontColor=#333333;fontSize=13.3;" vertex="1" parent="lvymU1fU42kwSS9ivMkf-6">
          <mxGeometry relative="1" as="geometry">
            <mxPoint x="9" y="3" as="offset" />
          </mxGeometry>
        </mxCell>
        <mxCell id="lvymU1fU42kwSS9ivMkf-30" style="edgeStyle=orthogonalEdgeStyle;rounded=0;orthogonalLoop=1;jettySize=auto;html=1;exitX=0.5;exitY=0;exitDx=0;exitDy=0;entryX=0.5;entryY=1;entryDx=0;entryDy=0;" edge="1" parent="1" source="lvymU1fU42kwSS9ivMkf-8" target="lvymU1fU42kwSS9ivMkf-1">
          <mxGeometry relative="1" as="geometry" />
        </mxCell>
        <mxCell id="lvymU1fU42kwSS9ivMkf-31" value="&lt;b&gt;GPIO&lt;/b&gt;" style="edgeLabel;html=1;align=center;verticalAlign=middle;resizable=0;points=[];" vertex="1" connectable="0" parent="lvymU1fU42kwSS9ivMkf-30">
          <mxGeometry x="0.0406" relative="1" as="geometry">
            <mxPoint as="offset" />
          </mxGeometry>
        </mxCell>
        <mxCell id="lvymU1fU42kwSS9ivMkf-8" value="Sensors" style="html=1;overflow=block;blockSpacing=1;whiteSpace=wrap;fontSize=16.7;fontColor=#3a414a;spacing=9;strokeColor=#3a414a;strokeOpacity=100;rounded=1;absoluteArcSize=1;arcSize=9;strokeWidth=0.8;lucidId=r4HVN-0l.M5B;" vertex="1" parent="1">
          <mxGeometry x="501" y="368" width="98" height="45" as="geometry" />
        </mxCell>
        <mxCell id="lvymU1fU42kwSS9ivMkf-26" style="edgeStyle=orthogonalEdgeStyle;rounded=0;orthogonalLoop=1;jettySize=auto;html=1;exitX=0;exitY=0.5;exitDx=0;exitDy=0;entryX=1;entryY=0.5;entryDx=0;entryDy=0;" edge="1" parent="1" source="lvymU1fU42kwSS9ivMkf-9" target="lvymU1fU42kwSS9ivMkf-12">
          <mxGeometry relative="1" as="geometry" />
        </mxCell>
        <mxCell id="lvymU1fU42kwSS9ivMkf-27" value="&lt;b&gt;Analog&lt;/b&gt;" style="edgeLabel;html=1;align=center;verticalAlign=middle;resizable=0;points=[];" vertex="1" connectable="0" parent="lvymU1fU42kwSS9ivMkf-26">
          <mxGeometry x="0.081" y="-1" relative="1" as="geometry">
            <mxPoint as="offset" />
          </mxGeometry>
        </mxCell>
        <mxCell id="lvymU1fU42kwSS9ivMkf-9" value="Motor driver" style="html=1;overflow=block;blockSpacing=1;whiteSpace=wrap;fontSize=16.7;fontColor=#3a414a;spacing=9;strokeColor=#3a414a;strokeOpacity=100;rounded=1;absoluteArcSize=1;arcSize=9;strokeWidth=0.8;lucidId=65HVoQi6rrJL;" vertex="1" parent="1">
          <mxGeometry x="291.5" y="180" width="108" height="40" as="geometry" />
        </mxCell>
        <mxCell id="lvymU1fU42kwSS9ivMkf-12" value="Motor" style="html=1;overflow=block;blockSpacing=1;whiteSpace=wrap;fontSize=16.7;fontColor=#3a414a;spacing=9;strokeColor=#3a414a;strokeOpacity=100;rounded=1;absoluteArcSize=1;arcSize=9;strokeWidth=0.8;lucidId=Z7HV266b1cg1;" vertex="1" parent="1">
          <mxGeometry x="136" y="180" width="80" height="40" as="geometry" />
        </mxCell>
        <mxCell id="lvymU1fU42kwSS9ivMkf-15" value="Buzzer" style="html=1;overflow=block;blockSpacing=1;whiteSpace=wrap;fontSize=16.7;fontColor=#3a414a;spacing=9;strokeColor=#3a414a;strokeOpacity=100;rounded=1;absoluteArcSize=1;arcSize=9;strokeWidth=0.8;lucidId=e8HVmL0fnJ4k;" vertex="1" parent="1">
          <mxGeometry x="138" y="329" width="78" height="39" as="geometry" />
        </mxCell>
        <mxCell id="lvymU1fU42kwSS9ivMkf-34" style="edgeStyle=orthogonalEdgeStyle;rounded=0;orthogonalLoop=1;jettySize=auto;html=1;exitX=0;exitY=0.5;exitDx=0;exitDy=0;entryX=1;entryY=0.5;entryDx=0;entryDy=0;" edge="1" parent="1" source="lvymU1fU42kwSS9ivMkf-16" target="lvymU1fU42kwSS9ivMkf-15">
          <mxGeometry relative="1" as="geometry" />
        </mxCell>
        <mxCell id="lvymU1fU42kwSS9ivMkf-35" value="&lt;b&gt;Analog&lt;/b&gt;" style="edgeLabel;html=1;align=center;verticalAlign=middle;resizable=0;points=[];" vertex="1" connectable="0" parent="lvymU1fU42kwSS9ivMkf-34">
          <mxGeometry x="-0.0915" relative="1" as="geometry">
            <mxPoint as="offset" />
          </mxGeometry>
        </mxCell>
        <mxCell id="lvymU1fU42kwSS9ivMkf-16" value="Buzzer control" style="html=1;overflow=block;blockSpacing=1;whiteSpace=wrap;fontSize=16.7;fontColor=#3a414a;spacing=9;strokeColor=#3a414a;strokeOpacity=100;rounded=1;absoluteArcSize=1;arcSize=9;strokeWidth=0.8;lucidId=V9HVoQI1RjWr;" vertex="1" parent="1">
          <mxGeometry x="308.5" y="318.5" width="91" height="60" as="geometry" />
        </mxCell>
      </root>
    </mxGraphModel>
  </diagram>
</mxfile>
